<?xml version="1.0" encoding="UTF-8"?>
<!-- Created with Inkscape (http://www.inkscape.org/) -->
<svg width="640" height="640" version="1.1" viewBox="0 0 640 640" xmlns="http://www.w3.org/2000/svg" xmlns:cc="http://creativecommons.org/ns#" xmlns:dc="http://purl.org/dc/elements/1.1/" xmlns:rdf="http://www.w3.org/1999/02/22-rdf-syntax-ns#" xmlns:xlink="http://www.w3.org/1999/xlink">
 <title>Logo for American Motorcycle Historical Society</title>
 <defs>
  <clipPath id="b">
   <path transform="translate(-550.15 -396)" d="m0 792h612v-792h-612z"/>
  </clipPath>
  <clipPath id="a">
   <path transform="translate(-550.15 -396)" d="m0 792h612v-792h-612z"/>
  </clipPath>
 </defs>
 <g transform="translate(-88 -208)">
  <g transform="matrix(.42055 0 0 .42055 77.351 115.5)">
   <path d="m2089.7 622.29h38.469v-8.1406l-15.078-2.2656 8.3281-25.125h37.781l8.3125 25.656-15.25 1.9062v7.9688h50.094v-7.9688l-11.781-1.3906-36.234-106.25h-14.203l-36.234 105.39-14.203 2.0781zm34.828-44.547 15.953-48.016 15.766 48.016zm83.73 44.547h40.547v-8.1406l-14.375-2.2656v-48.875l-0.875-34.484 36.578 93.766h10.922l34.484-93.422-0.1719 41.422c0 13.344 0 27.734-0.3438 42.125l-13.687 1.7344v8.1406h50.953v-8.1406l-14.562-1.5625c-0.3438-14.562-0.3438-29.297-0.3438-44.031v-7.4531c0-14.906 0-29.641 0.3438-44.203l14.219-1.5469v-8.1562h-38.484l-32.063 86.672-33.969-86.672h-36.75v8.1562l13.688 1.7344v94.797l-16.109 2.2656zm227.23-106.94 14.219 1.5469c0.3438 13.703 0.3438 27.562 0.3438 41.953h-47.141c0-12.656 0-27.562 0.3437-41.953l14.031-1.5469v-8.1562h-51.469v8.1562l14.375 1.5469c0.3594 14.734 0.3594 29.641 0.3594 44.203v7.4531c0 14.906 0 29.641-0.3594 44.031l-14.375 1.5625v8.1406h51.469v-8.1406l-14.031-1.5625c-0.3437-13.875-0.3437-28.078-0.3437-44.719h47.141c0 15.078 0 30.156-0.3438 44.719l-14.219 1.5625v8.1406h51.656v-8.1406l-14.562-1.5625c-0.3437-14.734-0.3437-29.469-0.3437-44.031v-7.4531c0-14.906 0-29.641 0.3437-44.203l14.562-1.5469v-8.1562h-51.656zm100.2 109.89c26.688 0 42.984-13.531 42.984-33.984 0-16.984-8.8438-26.688-31.375-36.047l-7.4531-3.125c-11.438-4.8438-17.859-10.562-17.859-20.625 0-11.266 9.1875-17.672 20.969-17.672 4.8594 0 8.8438 0.85937 13 2.9375l3.4688 19.938h13l1.2187-23.391c-7.7968-5.5469-18.375-9.0156-30.328-9.0156-24.094 0-40.906 12.469-40.906 32.75 0 18.375 11.781 28.781 30.844 36.75l7.1094 3.125c12.656 5.1875 18.203 9.875 18.203 19.922 0 11.625-8.6719 18.891-23.062 18.891-7.0937 0-12.125-1.2031-17.5-3.625l-3.4687-20.984h-13.344l-1.0469 24.969c8.8438 5.7188 22.547 9.1875 35.547 9.1875z" fill="#231f20" aria-label="AMHS"/>
   <path transform="matrix(1.3333 0 0 -1.3333 2659.8 564.75)" d="m0 0c0-134.84-109.31-244.15-244.15-244.15-134.84 0-244.15 109.31-244.15 244.15 0 134.84 109.31 244.15 244.15 244.15 134.84 0 244.15-109.31 244.15-244.15z" clip-path="url(#a)" fill="none" stroke="#231f20" stroke-miterlimit="10" stroke-width="11.053"/>
  </g>
 </g>
 <g transform="translate(-1926.2 -36.748)">
  <g transform="matrix(.94623 0 0 .94623 37.511 -177.63)">
   <path d="m2087.2 609.99h38.469v-8.1406l-15.078-2.2656 8.3281-25.125h37.781l8.3125 25.656-15.25 1.9062v7.9688h50.094v-7.9688l-11.781-1.3906-36.234-106.25h-14.203l-36.234 105.39-14.203 2.0781zm34.828-44.547 15.953-48.016 15.766 48.016zm83.73 44.547h40.547v-8.1406l-14.375-2.2656v-48.875l-0.875-34.484 36.578 93.766h10.922l34.484-93.422-0.1719 41.422c0 13.344 0 27.734-0.3438 42.125l-13.687 1.7344v8.1406h50.953v-8.1406l-14.562-1.5625c-0.3438-14.562-0.3438-29.297-0.3438-44.031v-7.4531c0-14.906 0-29.641 0.3438-44.203l14.219-1.5469v-8.1562h-38.484l-32.063 86.672-33.969-86.672h-36.75v8.1562l13.688 1.7344v94.797l-16.109 2.2656zm227.23-106.94 14.219 1.5469c0.3438 13.703 0.3438 27.562 0.3438 41.953h-47.141c0-12.656 0-27.562 0.3437-41.953l14.031-1.5469v-8.1562h-51.469v8.1562l14.375 1.5469c0.3594 14.734 0.3594 29.641 0.3594 44.203v7.4531c0 14.906 0 29.641-0.3594 44.031l-14.375 1.5625v8.1406h51.469v-8.1406l-14.031-1.5625c-0.3437-13.875-0.3437-28.078-0.3437-44.719h47.141c0 15.078 0 30.156-0.3438 44.719l-14.219 1.5625v8.1406h51.656v-8.1406l-14.562-1.5625c-0.3437-14.734-0.3437-29.469-0.3437-44.031v-7.4531c0-14.906 0-29.641 0.3437-44.203l14.562-1.5469v-8.1562h-51.656zm100.2 109.89c26.688 0 42.984-13.531 42.984-33.984 0-16.984-8.8438-26.688-31.375-36.047l-7.4531-3.125c-11.438-4.8438-17.859-10.562-17.859-20.625 0-11.266 9.1875-17.672 20.969-17.672 4.8594 0 8.8438 0.85937 13 2.9375l3.4688 19.938h13l1.2187-23.391c-7.7968-5.5469-18.375-9.0156-30.328-9.0156-24.094 0-40.906 12.469-40.906 32.75 0 18.375 11.781 28.781 30.844 36.75l7.1094 3.125c12.656 5.1875 18.203 9.875 18.203 19.922 0 11.625-8.6719 18.891-23.062 18.891-7.0937 0-12.125-1.2031-17.5-3.625l-3.4687-20.984h-13.344l-1.0469 24.969c8.8438 5.7188 22.547 9.1875 35.547 9.1875z" fill="#231f20" aria-label="AMHS"/>
   <path d="m2087.4 652.03h6.0469v-1.2812l-2.375-0.35938 1.3125-3.9375h5.9375l1.2969 4.0312-2.3906 0.29688v1.25h7.8593v-1.25l-1.8437-0.21875-5.6875-16.688h-2.2344l-5.6875 16.547-2.2344 0.32813zm5.4688-7 2.5156-7.5312 2.4688 7.5312zm13.473 7h6.7344v-1.1094l-1.6406-0.32812c-0.031-1.3594-0.031-3.1094-0.031-4.2812v-4.0469c0.9844-0.84375 1.9688-1.3594 3-1.3594 1.4063 0 1.9375 0.75 1.9375 2.9531v2.4531c0 1.2344 0 2.9219-0.031 4.25l-1.7656 0.35937v1.1094h6.6562v-1.1094l-1.6562-0.32812c-0.031-1.3594-0.031-3.0469-0.031-4.2812v-2.8281c0-0.4375-0.016-0.8125-0.047-1.1719 1.0625-0.98438 2.0157-1.4062 3.0157-1.4062 1.3593 0 1.9687 0.625 1.9687 2.9062v2.5c0 1.2344 0 2.9219-0.031 4.25l-1.7187 0.35937v1.1094h6.6406v-1.1094l-1.6562-0.32812c-0.031-1.3594-0.031-3.0469-0.031-4.2812v-2.9062c0-3.3281-1.2812-4.7969-3.7187-4.7969-1.6875 0-3.25 0.73438-4.6875 2.5312-0.4844-1.7344-1.6094-2.5312-3.4063-2.5312-1.6562 0-3.2343 0.90625-4.5156 2.3906l-0.1875-2.1094-0.4375-0.28125-4.5469 1.75v1l1.9375 0.25c0.047 1.0781 0.078 1.7656 0.078 3.2656v1.4375c0 1.1719 0 2.9219-0.031 4.25l-1.7969 0.35937zm31.199-12.078c1.3906 0 2.3437 0.92188 2.3437 2.7969 0 0.98437-0.3281 1.5469-1.75 1.5469h-3.6719c0.2188-3.2344 1.6563-4.3438 3.0782-4.3438zm0.1406 12.453c2.7969 0 4.2969-1.1719 5.4375-3.1562l-0.7344-0.59375c-0.9844 1.1094-2.125 1.6094-3.6719 1.6094-2.4218 0-4.1406-1.5781-4.2812-4.6875h8.3906c0.1094-0.40625 0.1563-0.89062 0.1563-1.5 0-3.2812-2.2032-5.4688-5.4375-5.4688-3.625 0-6.5157 2.7188-6.5157 7.0469 0 4.3125 2.6719 6.75 6.6563 6.75zm7.3164-0.375h7.2969v-1.1094l-2.2344-0.4375c-0.031-1.3438-0.031-3.0312-0.031-4.1719v-1.9062c0.3907-1.4062 1.0938-2.6094 2.0782-3.4531l0.2343 0.26563c0.6094 0.65625 1.1719 0.95312 1.8907 0.95312 1.0781 0 1.7031-0.73437 1.7343-2.0938-0.2656-0.95312-1.1406-1.4688-2.125-1.4688-1.4062 0-2.9687 1.25-3.8125 3.5156l-0.2656-3.2344-0.4375-0.28125-4.5469 1.75v1l1.9375 0.25c0.047 1.0781 0.078 1.7656 0.078 3.2656v1.4375c0 1.1719 0 2.9219-0.031 4.25l-1.7656 0.35937zm11.996 0h6.7344v-1.1094l-1.6719-0.32812c-0.016-1.3594-0.016-3.1094-0.016-4.2812v-3.5938l0.078-3.8281-0.4375-0.28125-4.8907 1.75v1l1.9219 0.25c0.062 1.0781 0.078 1.9219 0.078 3.4219v1.2812c0 1.1719 0 2.9219-0.016 4.25l-1.7812 0.35937zm3.2969-15.781c1.1406 0 2.0468-0.79688 2.0468-1.9375 0-1.1406-0.9062-1.9531-2.0468-1.9531-1.1407 0-2.0313 0.8125-2.0313 1.9531 0 1.1406 0.8906 1.9375 2.0313 1.9375zm11.73 16.156c2.5938 0 4.2031-1.1094 5.25-3.1562l-0.75-0.625c-1.0625 1.2344-2.2031 1.6406-3.5156 1.6406-2.2813 0-4.1406-1.5781-4.1406-5.0938 0-3.5312 1.7187-5.2188 3.6718-5.2188 0.3282 0 0.6875 0.0156 1.0157 0.10938l0.3437 1.5938c0.1719 1.3125 0.7969 1.9062 1.7813 1.9062 0.8125 0 1.3281-0.375 1.5156-1.2188-0.2656-2.0781-2.3594-3.7344-5.0313-3.7344-3.7031 0-6.7031 2.5625-6.7031 7.0312 0 4.2344 2.5156 6.7656 6.5625 6.7656zm17.262-0.0469c1.2813 0 2.1563-0.46875 2.7969-1.7188l-0.625-0.54687c-0.2969 0.40625-0.5625 0.60937-0.9531 0.60937-0.5156 0-0.8125-0.35937-0.8125-1.2344v-5.9375c0-3.5312-1.3594-4.9219-4.5156-4.9219-3.3282 0-5.4219 1.4219-5.75 3.5625 0.1406 0.82813 0.6875 1.2656 1.5312 1.2656 0.8906 0 1.5156-0.60938 1.6875-1.9062l0.3281-1.4688c0.4375-0.0937 0.7813-0.10938 1.1407-0.10938 1.7656 0 2.3906 0.67188 2.3906 3.2031v0.84375c-0.8594 0.25-1.7344 0.48437-2.6094 0.73437-3.9687 1.125-4.875 2.5-4.875 4.25 0 2.2344 1.5781 3.4219 3.625 3.4219 1.7188 0 2.6094-0.70313 3.9688-2.0625 0.2968 1.25 1.2343 2.0156 2.6718 2.0156zm-7.0781-3.8594c0-1.0938 0.4063-2.1562 2.5-2.8438 0.5781-0.15625 1.1719-0.375 1.7969-0.5625v4.3281c-1.1406 0.78125-1.6563 1-2.3594 1-1.125 0-1.9375-0.5625-1.9375-1.9219zm10.746 3.5312h6.7344v-1.1094l-1.6406-0.32812c-0.031-1.3594-0.031-3.1094-0.031-4.2812v-4.0469c1.0938-0.9375 2.0938-1.3594 3.0781-1.3594 1.3594 0 1.9063 0.70312 1.9063 2.8438v2.5625c0 1.2344 0 2.9219-0.031 4.25l-1.7343 0.35937v1.1094h6.7187v-1.1094l-1.6875-0.32812c-0.031-1.3594-0.031-3.0469-0.031-4.2812v-2.8281c0-3.375-1.3282-4.875-3.6719-4.875-1.625 0-3.2344 0.79688-4.625 2.375l-0.1875-2.0938-0.4375-0.28125-4.5469 1.75v1l1.9375 0.25c0.047 1.0781 0.078 1.7656 0.078 3.2656v1.4375c0 1.1719 0 2.9219-0.031 4.25l-1.7969 0.35937zm22.602 0h6.3593v-1.2812l-2.25-0.35938v-7.6719l-0.1406-5.4062 5.7344 14.719h1.7187l5.4219-14.672-0.031 6.5c0 2.1094 0 4.3594-0.047 6.625l-2.1563 0.26563v1.2812h8v-1.2812l-2.2812-0.25c-0.062-2.2812-0.062-4.5938-0.062-6.9062v-1.1719c0-2.3438 0-4.6562 0.062-6.9375l2.2344-0.25v-1.2812h-6.0469l-5.0313 13.609-5.3437-13.609h-5.7656v1.2812l2.1562 0.28125v14.875l-2.5312 0.35938zm30.609 0.375c3.6563 0 6.5625-2.5 6.5625-6.875 0-4.3906-3.0781-6.9219-6.5625-6.9219-3.5 0-6.5625 2.5625-6.5625 6.9219 0 4.3438 2.8907 6.875 6.5625 6.875zm0-1.2969c-1.9843 0-3.0156-1.7969-3.0156-5.5625 0-3.75 1.0313-5.5938 3.0156-5.5938 1.9688 0 3.0469 1.8438 3.0469 5.5938 0 3.7656-1.0781 5.5625-3.0469 5.5625zm13.156 1.2969c1.6875 0 2.8437-0.64063 3.5625-1.7969l-0.6563-0.67187c-0.5937 0.45312-1.1093 0.67187-1.6562 0.67187-0.875 0-1.4531-0.59375-1.4531-1.9219v-8.0625h3.3281v-1.625h-3.2969l0.1093-3.7656h-2.1718l-1.0157 3.7344-2.2343 0.26562v1.3906h2.0156v5.8594c0 1.0625-0.016 1.7031-0.016 2.5 0 2.3906 1.3281 3.4219 3.4844 3.4219zm11.098 0c3.6563 0 6.5626-2.5 6.5626-6.875 0-4.3906-3.0782-6.9219-6.5626-6.9219-3.5 0-6.5624 2.5625-6.5624 6.9219 0 4.3438 2.8906 6.875 6.5624 6.875zm0-1.2969c-1.9843 0-3.0156-1.7969-3.0156-5.5625 0-3.75 1.0313-5.5938 3.0156-5.5938 1.9688 0 3.0469 1.8438 3.0469 5.5938 0 3.7656-1.0781 5.5625-3.0469 5.5625zm8.5508 0.92188h7.2969v-1.1094l-2.2344-0.4375c-0.031-1.3438-0.031-3.0312-0.031-4.1719v-1.9062c0.3907-1.4062 1.0938-2.6094 2.0781-3.4531l0.2344 0.26563c0.6094 0.65625 1.1719 0.95312 1.8906 0.95312 1.0782 0 1.7032-0.73437 1.7344-2.0938-0.2656-0.95312-1.1406-1.4688-2.125-1.4688-1.4062 0-2.9687 1.25-3.8125 3.5156l-0.2656-3.2344-0.4375-0.28125-4.5469 1.75v1l1.9375 0.25c0.047 1.0781 0.078 1.7656 0.078 3.2656v1.4375c0 1.1719 0 2.9219-0.031 4.25l-1.7657 0.35937zm18.316 0.375c2.5938 0 4.2032-1.1094 5.25-3.1562l-0.75-0.625c-1.0625 1.2344-2.2031 1.6406-3.5156 1.6406-2.2812 0-4.1406-1.5781-4.1406-5.0938 0-3.5312 1.7187-5.2188 3.6719-5.2188 0.3281 0 0.6875 0.0156 1.0156 0.10938l0.3437 1.5938c0.1719 1.3125 0.7969 1.9062 1.7813 1.9062 0.8125 0 1.3281-0.375 1.5156-1.2188-0.2656-2.0781-2.3594-3.7344-5.0312-3.7344-3.7032 0-6.7032 2.5625-6.7032 7.0312 0 4.2344 2.5157 6.7656 6.5625 6.7656zm14.918-12.328 2.0781 0.32813-1.4218 4-1.5469 4.3594-3.0781-8.3906 2.1406-0.29688v-1.0781h-7.0938v1.0781l1.3907 0.21875 5.1718 12.609-0.062 0.15625c-0.4844 1.3906-1.2031 2.6406-2.1719 3.5625l-0.1718-0.21875c-0.7344-0.89063-1.4375-1.1094-2.1407-1.1094-0.9531 0-1.8281 0.46875-2.0468 1.4375 0.047 1.125 1.25 1.9375 2.6718 1.9375 2.3594 0 3.75-1.9531 5.3282-6.1719l4.6562-12.125 1.5313-0.29688v-1.0781h-5.2344zm12.191 12.328c2.5938 0 4.2031-1.1094 5.25-3.1562l-0.75-0.625c-1.0625 1.2344-2.2031 1.6406-3.5156 1.6406-2.2813 0-4.1406-1.5781-4.1406-5.0938 0-3.5312 1.7187-5.2188 3.6718-5.2188 0.3282 0 0.6875 0.0156 1.0157 0.10938l0.3437 1.5938c0.1719 1.3125 0.7969 1.9062 1.7813 1.9062 0.8125 0 1.3281-0.375 1.5156-1.2188-0.2656-2.0781-2.3594-3.7344-5.0313-3.7344-3.7031 0-6.7031 2.5625-6.7031 7.0312 0 4.2344 2.5156 6.7656 6.5625 6.7656zm6.2813-0.375h7.0781v-1.1094l-1.875-0.35937c-0.031-1.4219-0.047-2.8281-0.047-4.25v-10.156l0.094-3.8594-0.4063-0.25-4.9218 1.2344v1.0625l1.9843 0.26562v11.703c0 1.4219-0.031 2.8281-0.047 4.25l-1.8594 0.35937zm15.25-12.078c1.3906 0 2.3437 0.92188 2.3437 2.7969 0 0.98437-0.3281 1.5469-1.75 1.5469h-3.6719c0.2188-3.2344 1.6563-4.3438 3.0782-4.3438zm0.1406 12.453c2.7969 0 4.2969-1.1719 5.4375-3.1562l-0.7344-0.59375c-0.9844 1.1094-2.125 1.6094-3.6719 1.6094-2.4218 0-4.1406-1.5781-4.2812-4.6875h8.3906c0.1093-0.40625 0.1563-0.89062 0.1563-1.5 0-3.2812-2.2032-5.4688-5.4375-5.4688-3.625 0-6.5157 2.7188-6.5157 7.0469 0 4.3125 2.6719 6.75 6.6563 6.75zm24.461-17.172 2.2344 0.25c0.062 2.1406 0.062 4.3281 0.062 6.5781h-7.4062c0-1.9844 0-4.3281 0.047-6.5781l2.2031-0.25v-1.2812h-8.0781v1.2812l2.2656 0.25c0.047 2.3125 0.047 4.6562 0.047 6.9375v1.1719c0 2.3438 0 4.6562-0.047 6.9062l-2.2656 0.25v1.2812h8.0781v-1.2812l-2.2031-0.25c-0.047-2.1719-0.047-4.4062-0.047-7.0156h7.4062c0 2.375 0 4.7344-0.062 7.0156l-2.2344 0.25v1.2812h8.1094v-1.2812l-2.2813-0.25c-0.047-2.3125-0.047-4.625-0.047-6.9062v-1.1719c0-2.3438 0-4.6562 0.047-6.9375l2.2813-0.25v-1.2812h-8.1094zm10.039 16.797h6.7344v-1.1094l-1.6719-0.32812c-0.016-1.3594-0.016-3.1094-0.016-4.2812v-3.5938l0.078-3.8281-0.4375-0.28125-4.8906 1.75v1l1.9219 0.25c0.062 1.0781 0.078 1.9219 0.078 3.4219v1.2812c0 1.1719 0 2.9219-0.016 4.25l-1.7813 0.35937zm3.2969-15.781c1.1406 0 2.0468-0.79688 2.0468-1.9375 0-1.1406-0.9062-1.9531-2.0468-1.9531-1.1407 0-2.0313 0.8125-2.0313 1.9531 0 1.1406 0.8906 1.9375 2.0313 1.9375zm9.6679 16.156c3.6719 0 5.7188-1.7344 5.7188-4.1875 0-1.8438-1.0313-3.1875-3.7032-4.1094l-1.0624-0.32812c-1.875-0.625-2.3907-1.1094-2.3907-2.0938 0-1.0625 0.8438-1.7188 2.2813-1.7188 0.6562 0 1.1718 0.10937 1.6875 0.35937l0.4843 2.2656h1.7969l0.1407-2.8594c-1.2813-0.71875-2.5-1.125-4.0626-1.125-3.3124 0-5.1718 1.9062-5.1718 4.1406 0 1.9375 1.2656 3.1562 3.2968 3.8438l1.3594 0.45312c1.75 0.54688 2.4219 1.1406 2.4219 2.1562 0 1.1719-0.9219 1.8438-2.7656 1.8438-0.7969 0-1.4688-0.125-2.125-0.40625l-0.5-2.5312h-1.8125l0.016 3.1562c1.3906 0.76563 2.75 1.1406 4.3906 1.1406zm12.336 0c1.6875 0 2.8437-0.64063 3.5625-1.7969l-0.6563-0.67187c-0.5937 0.45312-1.1094 0.67187-1.6562 0.67187-0.875 0-1.4532-0.59375-1.4532-1.9219v-8.0625h3.3282v-1.625h-3.2969l0.1093-3.7656h-2.1718l-1.0157 3.7344-2.2343 0.26562v1.3906h2.0156v5.8594c0 1.0625-0.016 1.7031-0.016 2.5 0 2.3906 1.3281 3.4219 3.4843 3.4219zm11.094 0c3.6563 0 6.5625-2.5 6.5625-6.875 0-4.3906-3.0781-6.9219-6.5625-6.9219-3.5 0-6.5625 2.5625-6.5625 6.9219 0 4.3438 2.8906 6.875 6.5625 6.875zm0-1.2969c-1.9844 0-3.0156-1.7969-3.0156-5.5625 0-3.75 1.0312-5.5938 3.0156-5.5938 1.9688 0 3.0469 1.8438 3.0469 5.5938 0 3.7656-1.0781 5.5625-3.0469 5.5625zm8.5508 0.92188h7.2969v-1.1094l-2.2344-0.4375c-0.031-1.3438-0.031-3.0312-0.031-4.1719v-1.9062c0.3906-1.4062 1.0938-2.6094 2.0781-3.4531l0.2344 0.26563c0.6094 0.65625 1.1719 0.95312 1.8906 0.95312 1.0781 0 1.7031-0.73437 1.7344-2.0938-0.2656-0.95312-1.1406-1.4688-2.125-1.4688-1.4063 0-2.9687 1.25-3.8125 3.5156l-0.2656-3.2344-0.4375-0.28125-4.5469 1.75v1l1.9375 0.25c0.047 1.0781 0.078 1.7656 0.078 3.2656v1.4375c0 1.1719 0 2.9219-0.031 4.25l-1.7656 0.35937zm11.992 0h6.7344v-1.1094l-1.6719-0.32812c-0.016-1.3594-0.016-3.1094-0.016-4.2812v-3.5938l0.078-3.8281-0.4375-0.28125-4.8906 1.75v1l1.9219 0.25c0.062 1.0781 0.078 1.9219 0.078 3.4219v1.2812c0 1.1719 0 2.9219-0.016 4.25l-1.7812 0.35937zm3.2969-15.781c1.1406 0 2.0468-0.79688 2.0468-1.9375 0-1.1406-0.9062-1.9531-2.0468-1.9531-1.1407 0-2.0313 0.8125-2.0313 1.9531 0 1.1406 0.8906 1.9375 2.0313 1.9375zm11.734 16.156c2.5938 0 4.2032-1.1094 5.25-3.1562l-0.75-0.625c-1.0625 1.2344-2.2031 1.6406-3.5156 1.6406-2.2812 0-4.1406-1.5781-4.1406-5.0938 0-3.5312 1.7187-5.2188 3.6719-5.2188 0.3281 0 0.6875 0.0156 1.0156 0.10938l0.3437 1.5938c0.1719 1.3125 0.7969 1.9062 1.7813 1.9062 0.8125 0 1.3281-0.375 1.5156-1.2188-0.2656-2.0781-2.3594-3.7344-5.0312-3.7344-3.7032 0-6.7032 2.5625-6.7032 7.0312 0 4.2344 2.5157 6.7656 6.5625 6.7656zm17.262-0.0469c1.2813 0 2.1563-0.46875 2.7969-1.7188l-0.625-0.54687c-0.2969 0.40625-0.5625 0.60937-0.9531 0.60937-0.5156 0-0.8125-0.35937-0.8125-1.2344v-5.9375c0-3.5312-1.3594-4.9219-4.5156-4.9219-3.3281 0-5.4219 1.4219-5.75 3.5625 0.1406 0.82813 0.6875 1.2656 1.5312 1.2656 0.8907 0 1.5157-0.60938 1.6875-1.9062l0.3282-1.4688c0.4374-0.0937 0.7812-0.10938 1.1406-0.10938 1.7656 0 2.3906 0.67188 2.3906 3.2031v0.84375c-0.8594 0.25-1.7344 0.48437-2.6094 0.73437-3.9687 1.125-4.875 2.5-4.875 4.25 0 2.2344 1.5782 3.4219 3.625 3.4219 1.7188 0 2.6094-0.70313 3.9688-2.0625 0.2968 1.25 1.2344 2.0156 2.6718 2.0156zm-7.0781-3.8594c0-1.0938 0.4063-2.1562 2.5-2.8438 0.5781-0.15625 1.1719-0.375 1.7969-0.5625v4.3281c-1.1406 0.78125-1.6562 1-2.3594 1-1.125 0-1.9375-0.5625-1.9375-1.9219zm10.609 3.5312h7.0781v-1.1094l-1.875-0.35937c-0.031-1.4219-0.047-2.8281-0.047-4.25v-10.156l0.094-3.8594-0.4063-0.25-4.9219 1.2344v1.0625l1.9844 0.26562v11.703c0 1.4219-0.031 2.8281-0.047 4.25l-1.8594 0.35937zm20.426 0.46875c4.1875 0 6.75-2.125 6.75-5.3438 0-2.6719-1.3906-4.1875-4.9375-5.6562l-1.1719-0.5c-1.7969-0.75-2.7969-1.6562-2.7969-3.2344 0-1.7656 1.4375-2.7656 3.2969-2.7656 0.7656 0 1.3906 0.125 2.0313 0.45312l0.5468 3.125h2.0469l0.1875-3.6719c-1.2187-0.85938-2.8906-1.4062-4.7656-1.4062-3.7813 0-6.4219 1.9531-6.4219 5.1406 0 2.8906 1.8594 4.5156 4.8438 5.7656l1.125 0.5c1.9843 0.8125 2.8593 1.5469 2.8593 3.125 0 1.8281-1.375 2.9688-3.625 2.9688-1.125 0-1.9062-0.1875-2.75-0.57813l-0.5468-3.2969h-2.0938l-0.1719 3.9219c1.3907 0.90625 3.5469 1.4531 5.5938 1.4531zm15.285-0.0937c3.6563 0 6.5625-2.5 6.5625-6.875 0-4.3906-3.0781-6.9219-6.5625-6.9219-3.5 0-6.5625 2.5625-6.5625 6.9219 0 4.3438 2.8907 6.875 6.5625 6.875zm0-1.2969c-1.9843 0-3.0156-1.7969-3.0156-5.5625 0-3.75 1.0313-5.5938 3.0156-5.5938 1.9688 0 3.0469 1.8438 3.0469 5.5938 0 3.7656-1.0781 5.5625-3.0469 5.5625zm15.242 1.2969c2.5938 0 4.2032-1.1094 5.25-3.1562l-0.75-0.625c-1.0625 1.2344-2.2031 1.6406-3.5156 1.6406-2.2812 0-4.1406-1.5781-4.1406-5.0938 0-3.5312 1.7187-5.2188 3.6718-5.2188 0.3282 0 0.6876 0.0156 1.0157 0.10938l0.3437 1.5938c0.1719 1.3125 0.7969 1.9062 1.7813 1.9062 0.8125 0 1.3281-0.375 1.5156-1.2188-0.2656-2.0781-2.3594-3.7344-5.0313-3.7344-3.7031 0-6.7031 2.5625-6.7031 7.0312 0 4.2344 2.5157 6.7656 6.5625 6.7656zm6.9375-0.375h6.7344v-1.1094l-1.6719-0.32812c-0.016-1.3594-0.016-3.1094-0.016-4.2812v-3.5938l0.078-3.8281-0.4376-0.28125-4.8906 1.75v1l1.9219 0.25c0.062 1.0781 0.078 1.9219 0.078 3.4219v1.2812c0 1.1719 0 2.9219-0.016 4.25l-1.7812 0.35937zm3.2969-15.781c1.1406 0 2.0469-0.79688 2.0469-1.9375 0-1.1406-0.9063-1.9531-2.0469-1.9531s-2.0312 0.8125-2.0312 1.9531c0 1.1406 0.8906 1.9375 2.0312 1.9375zm11.684 3.7031c1.3906 0 2.3437 0.92188 2.3437 2.7969 0 0.98437-0.3281 1.5469-1.75 1.5469h-3.6718c0.2187-3.2344 1.6562-4.3438 3.0781-4.3438zm0.1406 12.453c2.7969 0 4.2969-1.1719 5.4375-3.1562l-0.7344-0.59375c-0.9843 1.1094-2.125 1.6094-3.6718 1.6094-2.4219 0-4.1407-1.5781-4.2813-4.6875h8.3906c0.1094-0.40625 0.1563-0.89062 0.1563-1.5 0-3.2812-2.2031-5.4688-5.4375-5.4688-3.625 0-6.5156 2.7188-6.5156 7.0469 0 4.3125 2.6718 6.75 6.6562 6.75zm12.109 0c1.6875 0 2.8437-0.64063 3.5625-1.7969l-0.6563-0.67187c-0.5937 0.45312-1.1093 0.67187-1.6562 0.67187-0.875 0-1.4531-0.59375-1.4531-1.9219v-8.0625h3.3281v-1.625h-3.2969l0.1093-3.7656h-2.1718l-1.0157 3.7344-2.2343 0.26562v1.3906h2.0156v5.8594c0 1.0625-0.016 1.7031-0.016 2.5 0 2.3906 1.3281 3.4219 3.4844 3.4219zm12.484-12.328 2.0781 0.32813-1.4219 4-1.5469 4.3594-3.0781-8.3906 2.1406-0.29688v-1.0781h-7.0937v1.0781l1.3906 0.21875 5.1719 12.609-0.062 0.15625c-0.4844 1.3906-1.2031 2.6406-2.1719 3.5625l-0.1719-0.21875c-0.7343-0.89063-1.4375-1.1094-2.1406-1.1094-0.9531 0-1.8281 0.46875-2.0469 1.4375 0.047 1.125 1.25 1.9375 2.6719 1.9375 2.3594 0 3.75-1.9531 5.3281-6.1719l4.6563-12.125 1.5312-0.29688v-1.0781h-5.2343z" fill="#231f20" aria-label="American Motorcycle Historical Society"/>
   <path transform="matrix(1.3333 0 0 -1.3333 2659.8 564.75)" d="m0 0c0-134.84-109.31-244.15-244.15-244.15-134.84 0-244.15 109.31-244.15 244.15 0 134.84 109.31 244.15 244.15 244.15 134.84 0 244.15-109.31 244.15-244.15z" clip-path="url(#b)" fill="none" stroke="#231f20" stroke-miterlimit="10" stroke-width="11.053"/>
  </g>
 </g>
 <metadata>
  <rdf:RDF>
   <cc:Work rdf:about="">
    <dc:title>Logo for American Motorcycle Historical Society</dc:title>
   </cc:Work>
  </rdf:RDF>
 </metadata>
</svg>
