<?xml version="1.0" encoding="UTF-8"?>
<!-- Created with Inkscape (http://www.inkscape.org/) -->
<svg width="280" height="280" version="1.1" viewBox="0 0 280 280" xmlns="http://www.w3.org/2000/svg" xmlns:cc="http://creativecommons.org/ns#" xmlns:dc="http://purl.org/dc/elements/1.1/" xmlns:rdf="http://www.w3.org/1999/02/22-rdf-syntax-ns#">
 <title>Logo for American Motorcycle Historical Society</title>
 <defs>
  <clipPath id="a">
   <path transform="translate(-550.15,-396)" d="m0 792h612v-792h-612z"/>
  </clipPath>
 </defs>
 <g transform="translate(-919.03 -213.01)">
  <g transform="matrix(.42055 0 0 .42055 77.351 115.5)">
   <path d="m2089.7 622.29h38.469v-8.1406l-15.078-2.2656 8.3281-25.125h37.781l8.3125 25.656-15.25 1.9062v7.9688h50.094v-7.9688l-11.781-1.3906-36.234-106.25h-14.203l-36.234 105.39-14.203 2.0781zm34.828-44.547 15.953-48.016 15.766 48.016zm83.73 44.547h40.547v-8.1406l-14.375-2.2656v-48.875l-0.875-34.484 36.578 93.766h10.922l34.484-93.422-0.1719 41.422c0 13.344 0 27.734-0.3438 42.125l-13.687 1.7344v8.1406h50.953v-8.1406l-14.562-1.5625c-0.3438-14.562-0.3438-29.297-0.3438-44.031v-7.4531c0-14.906 0-29.641 0.3438-44.203l14.219-1.5469v-8.1562h-38.484l-32.063 86.672-33.969-86.672h-36.75v8.1562l13.688 1.7344v94.797l-16.109 2.2656zm227.23-106.94 14.219 1.5469c0.3438 13.703 0.3438 27.562 0.3438 41.953h-47.141c0-12.656 0-27.562 0.3437-41.953l14.031-1.5469v-8.1562h-51.469v8.1562l14.375 1.5469c0.3594 14.734 0.3594 29.641 0.3594 44.203v7.4531c0 14.906 0 29.641-0.3594 44.031l-14.375 1.5625v8.1406h51.469v-8.1406l-14.031-1.5625c-0.3437-13.875-0.3437-28.078-0.3437-44.719h47.141c0 15.078 0 30.156-0.3438 44.719l-14.219 1.5625v8.1406h51.656v-8.1406l-14.562-1.5625c-0.3437-14.734-0.3437-29.469-0.3437-44.031v-7.4531c0-14.906 0-29.641 0.3437-44.203l14.562-1.5469v-8.1562h-51.656zm100.2 109.89c26.688 0 42.984-13.531 42.984-33.984 0-16.984-8.8438-26.688-31.375-36.047l-7.4531-3.125c-11.438-4.8438-17.859-10.562-17.859-20.625 0-11.266 9.1875-17.672 20.969-17.672 4.8594 0 8.8438 0.85937 13 2.9375l3.4688 19.938h13l1.2187-23.391c-7.7968-5.5469-18.375-9.0156-30.328-9.0156-24.094 0-40.906 12.469-40.906 32.75 0 18.375 11.781 28.781 30.844 36.75l7.1094 3.125c12.656 5.1875 18.203 9.875 18.203 19.922 0 11.625-8.6719 18.891-23.062 18.891-7.0937 0-12.125-1.2031-17.5-3.625l-3.4687-20.984h-13.344l-1.0469 24.969c8.8438 5.7188 22.547 9.1875 35.547 9.1875z" fill="#231f20" aria-label="AMHS"/>
   <path transform="matrix(1.3333,0,0,-1.3333,2659.8,564.75)" d="m0 0c0-134.84-109.31-244.15-244.15-244.15s-244.15 109.31-244.15 244.15 109.31 244.15 244.15 244.15 244.15-109.31 244.15-244.15z" clip-path="url(#a)" fill="none" stroke="#231f20" stroke-miterlimit="10" stroke-width="11.053"/>
  </g>
 </g>
 <metadata>
  <rdf:RDF>
   <cc:Work rdf:about="">
    <dc:title>Logo for American Motorcycle Historical Society</dc:title>
   </cc:Work>
  </rdf:RDF>
 </metadata>
</svg>
